# xmcd
#
# Track frame offsets: 
#        150
#        16014
#        28563
#        39351
#        51500
#        64508
#        76570
#        91584
#        107927
#        124710
#        138784
#        150758
#        165654
#        181144
#
# Disc length: 2609 seconds
#
# Revision: 0
# Processed by: cddbd v1.5.2PL0 Copyright (c) Steve Scherf et al.
# Submitted via: ExactAudioCopy v1.3
#
DISCID=920a2f0e
DTITLE=Porter Wagoner and Dolly Parton - Most Requested
DYEAR=1975
DGENRE=Country
TTITLE0=Little Boy's Prayer
TTITLE1=Jeannie's Afraid Of The Dark
TTITLE2=Love Is Like A Butterfly
TTITLE3=Jolene
TTITLE4=The Party
TTITLE5=Silver Sandles
TTITLE6=Charley's Picture
TTITLE7=Brother Harold Dee
TTITLE8=Waldo The Weirdo
TTITLE9=Coat Of Many Colours
TTITLE10=Just The Two Of Us
TTITLE11=Pastor's Absent On Vacation
TTITLE12=House Of Shame
TTITLE13=The Cold Hard Facts Of Life
EXTD=
EXTT0=
EXTT1=
EXTT2=
EXTT3=
EXTT4=
EXTT5=
EXTT6=
EXTT7=
EXTT8=
EXTT9=
EXTT10=
EXTT11=
EXTT12=
EXTT13=
PLAYORDER=
